<mxfile host="app.diagrams.net" agent="Mozilla/5.0 (Windows NT 10.0; Win64; x64) AppleWebKit/537.36 (KHTML, like Gecko) Chrome/129.0.0.0 Safari/537.36" version="24.7.16">
  <diagram name="페이지-1" id="-ev7YeJsOf7sGte-1zw4">
    <mxGraphModel dx="1050" dy="557" grid="1" gridSize="10" guides="1" tooltips="1" connect="1" arrows="1" fold="1" page="1" pageScale="1" pageWidth="827" pageHeight="1169" math="0" shadow="0">
      <root>
        <mxCell id="0" />
        <mxCell id="1" parent="0" />
        <mxCell id="nGNQTArU7a5N-aNC2h__-1" value="시퀀스 다이어그램" style="text;html=1;align=center;verticalAlign=middle;resizable=0;points=[];autosize=1;strokeColor=none;fillColor=none;rounded=0;fontStyle=1;fontSize=14;" vertex="1" parent="1">
          <mxGeometry x="10" y="10" width="140" height="30" as="geometry" />
        </mxCell>
        <mxCell id="nGNQTArU7a5N-aNC2h__-2" value="클래스 다이어그램" style="text;html=1;align=center;verticalAlign=middle;resizable=0;points=[];autosize=1;strokeColor=none;fillColor=none;fontSize=14;fontStyle=1" vertex="1" parent="1">
          <mxGeometry x="470" y="10" width="140" height="30" as="geometry" />
        </mxCell>
        <mxCell id="nGNQTArU7a5N-aNC2h__-6" value="e1:판매직원" style="html=1;whiteSpace=wrap;fontSize=13;" vertex="1" parent="1">
          <mxGeometry x="40" y="60" width="90" height="30" as="geometry" />
        </mxCell>
        <mxCell id="nGNQTArU7a5N-aNC2h__-7" value="c1: 고객" style="html=1;whiteSpace=wrap;fontSize=13;" vertex="1" parent="1">
          <mxGeometry x="180" y="60" width="90" height="30" as="geometry" />
        </mxCell>
        <mxCell id="nGNQTArU7a5N-aNC2h__-9" value="" style="edgeStyle=none;orthogonalLoop=1;jettySize=auto;html=1;rounded=0;exitX=0.5;exitY=1;exitDx=0;exitDy=0;endArrow=none;endFill=0;dashed=1;" edge="1" parent="1" source="nGNQTArU7a5N-aNC2h__-6">
          <mxGeometry width="100" relative="1" as="geometry">
            <mxPoint x="80" y="180" as="sourcePoint" />
            <mxPoint x="85" y="270" as="targetPoint" />
            <Array as="points" />
          </mxGeometry>
        </mxCell>
        <mxCell id="nGNQTArU7a5N-aNC2h__-10" value="" style="edgeStyle=none;orthogonalLoop=1;jettySize=auto;html=1;rounded=0;exitX=0.5;exitY=1;exitDx=0;exitDy=0;endArrow=none;endFill=0;dashed=1;" edge="1" parent="1">
          <mxGeometry width="100" relative="1" as="geometry">
            <mxPoint x="224.5" y="90" as="sourcePoint" />
            <mxPoint x="225" y="250" as="targetPoint" />
            <Array as="points" />
          </mxGeometry>
        </mxCell>
        <mxCell id="nGNQTArU7a5N-aNC2h__-11" value="" style="edgeStyle=none;orthogonalLoop=1;jettySize=auto;html=1;rounded=0;endArrow=classic;endFill=1;" edge="1" parent="1">
          <mxGeometry width="100" relative="1" as="geometry">
            <mxPoint x="85" y="130" as="sourcePoint" />
            <mxPoint x="225" y="130" as="targetPoint" />
            <Array as="points" />
          </mxGeometry>
        </mxCell>
        <mxCell id="nGNQTArU7a5N-aNC2h__-12" value="&lt;font style=&quot;font-size: 10px;&quot;&gt;1: 제품 설명&lt;/font&gt;" style="text;html=1;align=center;verticalAlign=middle;resizable=0;points=[];autosize=1;strokeColor=none;fillColor=none;" vertex="1" parent="1">
          <mxGeometry x="110" y="105" width="80" height="30" as="geometry" />
        </mxCell>
        <mxCell id="nGNQTArU7a5N-aNC2h__-13" value="" style="edgeStyle=none;orthogonalLoop=1;jettySize=auto;html=1;rounded=0;endArrow=open;endFill=0;" edge="1" parent="1">
          <mxGeometry width="100" relative="1" as="geometry">
            <mxPoint x="225" y="160" as="sourcePoint" />
            <mxPoint x="85" y="160" as="targetPoint" />
            <Array as="points" />
          </mxGeometry>
        </mxCell>
        <mxCell id="nGNQTArU7a5N-aNC2h__-48" value="" style="edgeStyle=orthogonalEdgeStyle;rounded=0;orthogonalLoop=1;jettySize=auto;html=1;" edge="1" parent="1" source="nGNQTArU7a5N-aNC2h__-14" target="nGNQTArU7a5N-aNC2h__-16">
          <mxGeometry relative="1" as="geometry" />
        </mxCell>
        <mxCell id="nGNQTArU7a5N-aNC2h__-14" value="&lt;font style=&quot;font-size: 10px;&quot;&gt;2. 제품 구매&lt;/font&gt;" style="text;html=1;align=center;verticalAlign=middle;resizable=0;points=[];autosize=1;strokeColor=none;fillColor=none;" vertex="1" parent="1">
          <mxGeometry x="110" y="136" width="80" height="30" as="geometry" />
        </mxCell>
        <mxCell id="nGNQTArU7a5N-aNC2h__-16" value="호출(동기) 메시지&amp;nbsp;&amp;nbsp;&lt;div&gt;&lt;br&gt;&lt;/div&gt;&lt;div&gt;비동기 메시지&amp;nbsp;&amp;nbsp;&lt;/div&gt;&lt;div style=&quot;font-size: 11px;&quot;&gt;&lt;br&gt;&lt;/div&gt;&lt;div&gt;return 메시지&amp;nbsp;&amp;nbsp;&lt;/div&gt;" style="whiteSpace=wrap;html=1;align=right;fillColor=#ffe6cc;strokeColor=#d79b00;shadow=1;rounded=1;" vertex="1" parent="1">
          <mxGeometry x="260" y="106" width="200" height="124" as="geometry" />
        </mxCell>
        <mxCell id="nGNQTArU7a5N-aNC2h__-17" value="" style="edgeStyle=none;orthogonalLoop=1;jettySize=auto;html=1;rounded=0;endArrow=classic;endFill=1;shadow=1;" edge="1" parent="1">
          <mxGeometry width="100" relative="1" as="geometry">
            <mxPoint x="280" y="139" as="sourcePoint" />
            <mxPoint x="350" y="139" as="targetPoint" />
            <Array as="points" />
          </mxGeometry>
        </mxCell>
        <mxCell id="nGNQTArU7a5N-aNC2h__-19" value="" style="edgeStyle=none;orthogonalLoop=1;jettySize=auto;html=1;rounded=0;endArrow=open;endFill=0;dashed=1;dashPattern=8 8;shadow=1;" edge="1" parent="1">
          <mxGeometry width="100" relative="1" as="geometry">
            <mxPoint x="351" y="197.29000000000002" as="sourcePoint" />
            <mxPoint x="281" y="197" as="targetPoint" />
            <Array as="points" />
          </mxGeometry>
        </mxCell>
        <mxCell id="nGNQTArU7a5N-aNC2h__-20" value="" style="edgeStyle=none;orthogonalLoop=1;jettySize=auto;html=1;rounded=0;endArrow=open;endFill=0;shadow=1;" edge="1" parent="1">
          <mxGeometry width="100" relative="1" as="geometry">
            <mxPoint x="280" y="167.71" as="sourcePoint" />
            <mxPoint x="350" y="168" as="targetPoint" />
            <Array as="points" />
          </mxGeometry>
        </mxCell>
        <mxCell id="nGNQTArU7a5N-aNC2h__-22" value="판매직원" style="swimlane;fontStyle=1;align=center;verticalAlign=top;childLayout=stackLayout;horizontal=1;startSize=26;horizontalStack=0;resizeParent=1;resizeParentMax=0;resizeLast=0;collapsible=1;marginBottom=0;whiteSpace=wrap;html=1;" vertex="1" parent="1">
          <mxGeometry x="490" y="60" width="100" height="70" as="geometry" />
        </mxCell>
        <mxCell id="nGNQTArU7a5N-aNC2h__-24" value="" style="line;strokeWidth=1;fillColor=none;align=left;verticalAlign=middle;spacingTop=-1;spacingLeft=3;spacingRight=3;rotatable=0;labelPosition=right;points=[];portConstraint=eastwest;strokeColor=inherit;" vertex="1" parent="nGNQTArU7a5N-aNC2h__-22">
          <mxGeometry y="26" width="100" height="8" as="geometry" />
        </mxCell>
        <mxCell id="nGNQTArU7a5N-aNC2h__-25" value="+ 제품설명()" style="text;strokeColor=none;fillColor=none;align=left;verticalAlign=top;spacingLeft=4;spacingRight=4;overflow=hidden;rotatable=0;points=[[0,0.5],[1,0.5]];portConstraint=eastwest;whiteSpace=wrap;html=1;" vertex="1" parent="nGNQTArU7a5N-aNC2h__-22">
          <mxGeometry y="34" width="100" height="36" as="geometry" />
        </mxCell>
        <mxCell id="nGNQTArU7a5N-aNC2h__-26" value="고객" style="swimlane;fontStyle=1;align=center;verticalAlign=top;childLayout=stackLayout;horizontal=1;startSize=26;horizontalStack=0;resizeParent=1;resizeParentMax=0;resizeLast=0;collapsible=1;marginBottom=0;whiteSpace=wrap;html=1;" vertex="1" parent="1">
          <mxGeometry x="670" y="60" width="100" height="64" as="geometry" />
        </mxCell>
        <mxCell id="nGNQTArU7a5N-aNC2h__-27" value="" style="line;strokeWidth=1;fillColor=none;align=left;verticalAlign=middle;spacingTop=-1;spacingLeft=3;spacingRight=3;rotatable=0;labelPosition=right;points=[];portConstraint=eastwest;strokeColor=inherit;" vertex="1" parent="nGNQTArU7a5N-aNC2h__-26">
          <mxGeometry y="26" width="100" height="8" as="geometry" />
        </mxCell>
        <mxCell id="nGNQTArU7a5N-aNC2h__-28" value="+ 제품구매()" style="text;strokeColor=none;fillColor=none;align=left;verticalAlign=top;spacingLeft=4;spacingRight=4;overflow=hidden;rotatable=0;points=[[0,0.5],[1,0.5]];portConstraint=eastwest;whiteSpace=wrap;html=1;" vertex="1" parent="nGNQTArU7a5N-aNC2h__-26">
          <mxGeometry y="34" width="100" height="30" as="geometry" />
        </mxCell>
        <mxCell id="nGNQTArU7a5N-aNC2h__-29" value="" style="edgeStyle=none;orthogonalLoop=1;jettySize=auto;html=1;rounded=0;endArrow=none;endFill=0;" edge="1" parent="1">
          <mxGeometry width="100" relative="1" as="geometry">
            <mxPoint x="590" y="95" as="sourcePoint" />
            <mxPoint x="670" y="95" as="targetPoint" />
            <Array as="points" />
          </mxGeometry>
        </mxCell>
        <mxCell id="nGNQTArU7a5N-aNC2h__-30" value="1" style="text;html=1;align=center;verticalAlign=middle;resizable=0;points=[];autosize=1;strokeColor=none;fillColor=none;" vertex="1" parent="1">
          <mxGeometry x="580" y="70" width="30" height="30" as="geometry" />
        </mxCell>
        <mxCell id="nGNQTArU7a5N-aNC2h__-31" value="1" style="text;html=1;align=center;verticalAlign=middle;resizable=0;points=[];autosize=1;strokeColor=none;fillColor=none;" vertex="1" parent="1">
          <mxGeometry x="645" y="70" width="30" height="30" as="geometry" />
        </mxCell>
        <mxCell id="nGNQTArU7a5N-aNC2h__-32" value="&amp;lt;&amp;lt; boundary &amp;gt;&amp;gt;&amp;nbsp;&lt;div&gt;:Test1&lt;/div&gt;" style="html=1;whiteSpace=wrap;fontSize=13;" vertex="1" parent="1">
          <mxGeometry x="78" y="330" width="100" height="40" as="geometry" />
        </mxCell>
        <mxCell id="nGNQTArU7a5N-aNC2h__-33" value="&amp;lt;&amp;lt;control&amp;gt;&amp;gt;&lt;div&gt;s1 : Score&lt;/div&gt;" style="html=1;whiteSpace=wrap;fontSize=13;" vertex="1" parent="1">
          <mxGeometry x="315" y="331" width="90" height="39" as="geometry" />
        </mxCell>
        <mxCell id="nGNQTArU7a5N-aNC2h__-34" value="" style="edgeStyle=none;orthogonalLoop=1;jettySize=auto;html=1;rounded=0;exitX=0.5;exitY=1;exitDx=0;exitDy=0;endArrow=none;endFill=0;dashed=1;" edge="1" parent="1" source="nGNQTArU7a5N-aNC2h__-32">
          <mxGeometry width="100" relative="1" as="geometry">
            <mxPoint x="118" y="460" as="sourcePoint" />
            <mxPoint x="128" y="661.5999755859375" as="targetPoint" />
            <Array as="points" />
          </mxGeometry>
        </mxCell>
        <mxCell id="nGNQTArU7a5N-aNC2h__-35" value="" style="edgeStyle=none;orthogonalLoop=1;jettySize=auto;html=1;rounded=0;exitX=0.5;exitY=1;exitDx=0;exitDy=0;endArrow=none;endFill=0;dashed=1;" edge="1" parent="1">
          <mxGeometry width="100" relative="1" as="geometry">
            <mxPoint x="359.5" y="370" as="sourcePoint" />
            <mxPoint x="360" y="660" as="targetPoint" />
            <Array as="points" />
          </mxGeometry>
        </mxCell>
        <mxCell id="nGNQTArU7a5N-aNC2h__-36" value="" style="edgeStyle=none;orthogonalLoop=1;jettySize=auto;html=1;rounded=0;endArrow=classic;endFill=1;" edge="1" parent="1">
          <mxGeometry width="100" relative="1" as="geometry">
            <mxPoint x="130" y="410" as="sourcePoint" />
            <mxPoint x="330" y="410" as="targetPoint" />
            <Array as="points" />
          </mxGeometry>
        </mxCell>
        <mxCell id="nGNQTArU7a5N-aNC2h__-37" value="&lt;font style=&quot;font-size: 10px;&quot;&gt;1 : s1.add(&quot;a1001&quot;, 99.9, 78.9, 50.5)&lt;/font&gt;" style="text;html=1;align=center;verticalAlign=middle;resizable=0;points=[];autosize=1;strokeColor=none;fillColor=none;" vertex="1" parent="1">
          <mxGeometry x="136" y="385" width="180" height="30" as="geometry" />
        </mxCell>
        <mxCell id="nGNQTArU7a5N-aNC2h__-41" value="&amp;lt;&amp;lt;entity&amp;gt;&amp;gt;&lt;div&gt;st1 : Student&lt;/div&gt;" style="html=1;whiteSpace=wrap;fontSize=13;" vertex="1" parent="1">
          <mxGeometry x="580" y="330" width="90" height="39" as="geometry" />
        </mxCell>
        <mxCell id="nGNQTArU7a5N-aNC2h__-42" value="" style="edgeStyle=none;orthogonalLoop=1;jettySize=auto;html=1;rounded=0;exitX=0.5;exitY=1;exitDx=0;exitDy=0;endArrow=none;endFill=0;dashed=1;" edge="1" parent="1" source="nGNQTArU7a5N-aNC2h__-46">
          <mxGeometry width="100" relative="1" as="geometry">
            <mxPoint x="619" y="369.5" as="sourcePoint" />
            <mxPoint x="619" y="640" as="targetPoint" />
            <Array as="points" />
          </mxGeometry>
        </mxCell>
        <mxCell id="nGNQTArU7a5N-aNC2h__-43" value="" style="whiteSpace=wrap;html=1;" vertex="1" parent="1">
          <mxGeometry x="330" y="385" width="60" height="255" as="geometry" />
        </mxCell>
        <mxCell id="nGNQTArU7a5N-aNC2h__-44" value="" style="edgeStyle=none;orthogonalLoop=1;jettySize=auto;html=1;rounded=0;endArrow=classic;endFill=1;" edge="1" parent="1">
          <mxGeometry width="100" relative="1" as="geometry">
            <mxPoint x="392" y="439" as="sourcePoint" />
            <mxPoint x="602" y="439" as="targetPoint" />
            <Array as="points" />
          </mxGeometry>
        </mxCell>
        <mxCell id="nGNQTArU7a5N-aNC2h__-45" value="&lt;font style=&quot;font-size: 10px;&quot;&gt;2 : st1.checkStudent(id)&lt;/font&gt;" style="text;html=1;align=center;verticalAlign=middle;resizable=0;points=[];autosize=1;strokeColor=none;fillColor=none;" vertex="1" parent="1">
          <mxGeometry x="432" y="414" width="130" height="30" as="geometry" />
        </mxCell>
        <mxCell id="nGNQTArU7a5N-aNC2h__-47" value="" style="edgeStyle=none;orthogonalLoop=1;jettySize=auto;html=1;rounded=0;exitX=0.5;exitY=1;exitDx=0;exitDy=0;endArrow=none;endFill=0;dashed=1;" edge="1" parent="1" target="nGNQTArU7a5N-aNC2h__-46">
          <mxGeometry width="100" relative="1" as="geometry">
            <mxPoint x="619" y="369.5" as="sourcePoint" />
            <mxPoint x="619" y="640" as="targetPoint" />
            <Array as="points" />
          </mxGeometry>
        </mxCell>
        <mxCell id="nGNQTArU7a5N-aNC2h__-46" value="" style="whiteSpace=wrap;html=1;" vertex="1" parent="1">
          <mxGeometry x="603" y="414" width="30" height="106" as="geometry" />
        </mxCell>
        <mxCell id="nGNQTArU7a5N-aNC2h__-49" value="" style="edgeStyle=none;orthogonalLoop=1;jettySize=auto;html=1;rounded=0;endArrow=open;endFill=0;dashed=1;dashPattern=12 12;" edge="1" parent="1">
          <mxGeometry width="100" relative="1" as="geometry">
            <mxPoint x="600" y="480" as="sourcePoint" />
            <mxPoint x="390" y="480" as="targetPoint" />
            <Array as="points" />
          </mxGeometry>
        </mxCell>
        <mxCell id="nGNQTArU7a5N-aNC2h__-50" value="3: return true" style="text;html=1;align=center;verticalAlign=middle;resizable=0;points=[];autosize=1;strokeColor=none;fillColor=none;" vertex="1" parent="1">
          <mxGeometry x="452" y="455" width="90" height="30" as="geometry" />
        </mxCell>
      </root>
    </mxGraphModel>
  </diagram>
</mxfile>
